<?xml version="1.0" encoding="UTF-8"?>
<svg id="Layer_2" data-name="Layer 2" xmlns="http://www.w3.org/2000/svg" xmlns:xlink="http://www.w3.org/1999/xlink" viewBox="0 0 306.24 306.24">
  <defs>
    <style>
      .cls-1 {
        fill: url(#linear-gradient-2);
      }

      .cls-2 {
        fill: #fff;
      }

      .cls-3 {
        fill: url(#linear-gradient);
      }
    </style>
    <linearGradient id="linear-gradient" x1="15.12" y1="75.79" x2="180.32" y2="177.88" gradientUnits="userSpaceOnUse">
      <stop offset="0" stop-color="#211c58"/>
      <stop offset="1" stop-color="#1c75bc"/>
    </linearGradient>
    <linearGradient id="linear-gradient-2" x1="215.9" y1="157.7" x2="301.29" y2="202.25" gradientUnits="userSpaceOnUse">
      <stop offset="0" stop-color="#211c58"/>
      <stop offset="1" stop-color="#1c75bc"/>
    </linearGradient>
  </defs>
  <g id="Layer_1-2" data-name="Layer 1">
    <g>
      <g>
        <path class="cls-3" d="m142.47,191.06c19.64,0,51.18-3.56,80.75-38.46,29.58-34.89,12.11-96.37-21.82-131.09-8-8.18-18.82-14.93-30.69-20.48-5.77-.66-11.63-1.03-17.58-1.03C68.55,0,0,68.56,0,153.12s68.55,153.12,153.12,153.12c19.27,0,37.7-3.59,54.68-10.09-67.95-19.96-65.33-105.08-65.33-105.08Z"/>
        <path class="cls-1" d="m306.24,153.12c0-78.62-59.26-143.36-135.54-152.09,11.88,5.55,22.69,12.3,30.69,20.48,33.93,34.72,51.4,96.2,21.82,131.09-29.57,34.9-61.11,38.46-80.75,38.46,0,0-2.62,85.12,65.33,105.08,57.56-22.02,98.45-77.73,98.45-143.02Z"/>
      </g>
      <g>
        <path class="cls-2" d="m228.23,286.54c-16.47-3.17-32.32-10.69-45.72-22.68-21.22-19.01-31.96-45.34-31.86-71.76h13.62c52.89,0,95.76-42.87,95.76-95.76,0-36.56-20.98-69.2-51.4-85.88-11.98-4.67-24.69-7.9-37.93-9.42-5.77-.66-11.63-1.03-17.58-1.03-5.27,0-10.48.27-15.62.79,50.04,3.16,89.66,44.71,89.66,95.55,0,46.28-32.83,84.9-76.48,93.82.53-21.97,8.56-43.87,24.37-61.53l-21.93,24.5c-10.35,11.55-17.35,24.94-21.11,38.96-.2,0-.41.01-.61.01h.61c-9.07,33.79.74,71.32,28.58,96.25,6.88,6.17,14.42,11.13,22.36,14.95,8.56-1.7,16.87-4.08,24.86-7.14,7.08-2.7,13.9-5.93,20.43-9.61Z"/>
        <path class="cls-2" d="m87.67,282.36c1.5-2.25,2.86-4.61,4.3-6.92,2.95-4.59,5.5-9.44,7.93-14.35,1.3-2.42,2.37-4.93,3.45-7.44l3.23-7.53c.9-2.56,1.79-5.12,2.69-7.68l1.32-3.84,1.12-3.88c.75-2.58,1.45-5.15,2.12-7.73.55-2.6,1.1-5.18,1.64-7.74,1.22-5.11,1.67-10.27,2.44-15.28.47-5.05,1.01-10,1.07-14.86.06-2.42.13-4.82.19-7.19-.07-2.36-.13-4.7-.19-7-.3-9.21-1.28-17.83-2.66-25.68-1.27-7.86-3.12-14.94-4.86-21.11-1.86-6.17-3.73-11.45-5.5-15.7-1.75-4.26-3.37-7.51-4.5-9.7-1.11-2.2-1.83-3.31-1.83-3.31,0,0,.36,5.26.5,14.24.11,4.48.11,9.91.07,16.06-.13,6.16-.27,13.05-.78,20.51-.14,3.72-.63,7.58-.86,11.56-.21,1.98-.44,4-.66,6.05-.2,2.04-.4,4.1-.72,6.19-.96,8.37-2.63,17.03-4.38,25.89-2.11,8.8-4.22,17.84-7.32,26.71l-1.06,3.37-1.25,3.3c-.83,2.21-1.65,4.42-2.48,6.64l-2.79,6.53c-.92,2.19-1.84,4.38-2.96,6.47-1.07,2.12-2.15,4.23-3.17,6.37-.98,2.17-2.3,4.14-3.42,6.22-1.19,2.04-2.29,4.14-3.54,6.13-1.32,1.95-2.56,3.95-3.82,5.92-.25.41-.52.81-.77,1.21,7.07,5.41,14.63,10.2,22.59,14.33.05-.07.1-.13.14-.19,1.57-2.18,3.16-4.37,4.74-6.57Z"/>
      </g>
    </g>
  </g>
</svg>